# xmcd
#
# Track frame offsets:
#	150
#	52642
#	87758
#	118562
#	167906
#	197417
#	226313
#	240707
#
# Disc length: 3661 seconds
#
# Revision: 0
# Processed by: cddbd v1.5.2PL0 Copyright (c) Steve Scherf et al.
# Submitted via: audiograbber 1.83.01
#
DISCID=560e4b08
DTITLE=Grateful Dead - 92-06-14 Giants Stadium, East Rutherford NJ
DYEAR=1900
DGENRE=
TTITLE0=Shakedown Street
TTITLE1=Walkin' Blues
TTITLE2=Candyman
TTITLE3=Desolation Blues
TTITLE4=Jack-A-Roe
TTITLE5=Picasso Blues
TTITLE6=Don't Ease Me In
TTITLE7=Samson and Delilah
EXTD=
EXTT0=
EXTT1=
EXTT2=
EXTT3=
EXTT4=
EXTT5=
EXTT6=
EXTT7=
PLAYORDER=
